<svg xmlns="http://www.w3.org/2000/svg" width="90.007" height="66.693" viewBox="0 0 90.007 66.693">
  <path id="_7112647_shake_hands_greeting_friendship_hands_gesture_icon" data-name="7112647_shake hands_greeting_friendship_hands_gesture_icon" d="M146.887,142.856H130.469a1.118,1.118,0,0,0-.793.327l-2.108,2.106L114.09,131.813a15.832,15.832,0,0,0,9.927-4.384,1.136,1.136,0,0,0-1.511-1.667,13.413,13.413,0,0,1-10.827,3.78,1.12,1.12,0,0,0-.525-.066,17.984,17.984,0,0,1-8.178-3.646,1.136,1.136,0,0,0-1.52.061l-3.451,3.453a7.069,7.069,0,0,1-9.768,0l-.741-.738,12.319-12.315a16.272,16.272,0,0,1,11.586-4.8h35.484a1.124,1.124,0,0,0,0-2.247H111.4q-.786,0-1.563.066a1.136,1.136,0,0,0-.373-.066h-49.4a1.124,1.124,0,1,0,0,2.247h42.451a18.667,18.667,0,0,0-4.289,3.208L85.112,127.817a1.136,1.136,0,0,0-.327.8,1.12,1.12,0,0,0,.332.8l1.531,1.531a9.15,9.15,0,0,0,12.949,0l2.765-2.767a20.944,20.944,0,0,0,8.362,3.464l19.348,19.353a3.03,3.03,0,0,1-3.962,4.566c-.093-.109-.189-.216-.291-.318l-6.7-6.695a1.122,1.122,0,0,0-1.59,0l-.018.018-.02.018a1.136,1.136,0,0,0,0,1.59l6.7,6.7c.1.1.2.2.311.284a3.028,3.028,0,0,1-4.232,4.248,3.609,3.609,0,0,0-.293-.323l-6.695-6.695a1.136,1.136,0,0,0-1.59,0,.133.133,0,0,1-.018.018l-.02.02a1.136,1.136,0,0,0,0,1.59l6.695,6.695c.1.1.214.2.323.3a3.028,3.028,0,0,1-4.246,4.234c-.091-.107-.186-.214-.288-.316l-1.842-1.845a1.1,1.1,0,0,0-.275-.2l-3.782-3.782a5.268,5.268,0,0,0-5.711-6.533,5.261,5.261,0,0,0-5.838-5.838,5.268,5.268,0,0,0-1.506-4.332,5.325,5.325,0,0,0-4.339-1.465,5.275,5.275,0,0,0-8.969-4.38l-3.928,3.93L76.3,140.825a1.136,1.136,0,0,0-.8-.327H59.076a1.124,1.124,0,0,0,0,2.247H75.04l1.318,1.318-1.174,1.177a5.277,5.277,0,0,0,4.33,8.973,5.257,5.257,0,0,0,5.838,5.841,5.277,5.277,0,0,0,5.843,5.841,5.277,5.277,0,0,0,8.976,4.332l1.174-1.174,5.327,5.336a5.275,5.275,0,0,0,8.976-4.332,5.268,5.268,0,0,0,5.841-5.843,5.264,5.264,0,0,0,5.841-5.838,5.277,5.277,0,0,0,4.334-8.976l-2.515-2.522,1.779-1.776h15.961a1.122,1.122,0,1,0,0-2.244Zm-70.118,8.26h0a3.028,3.028,0,0,1,0-4.287l6.7-6.7a3.03,3.03,0,0,1,4.559,3.969c-.107.091-.211.184-.311.284l-6.7,6.695c-.1.1-.2.207-.286.316A3.026,3.026,0,0,1,76.768,151.116Zm5.838,5.841a3.028,3.028,0,0,1-.275-3.964c.107-.091.214-.186.313-.286l6.706-6.7q.152-.154.293-.32a3.028,3.028,0,0,1,4.237,4.244,3.587,3.587,0,0,0-.32.291l-6.708,6.7c-.1.1-.2.211-.3.323A3.024,3.024,0,0,1,82.607,156.956Zm5.836,5.845a3.028,3.028,0,0,1-.282-3.957c.109-.093.216-.189.32-.291l6.695-6.7c.1-.1.2-.211.3-.323a3.028,3.028,0,0,1,4.23,4.248c-.107.091-.211.184-.311.286l-6.7,6.695c-.1.1-.2.209-.289.316A3.021,3.021,0,0,1,88.443,162.8Zm10.127,5.841a3.1,3.1,0,0,1-4.287,0h0a3.028,3.028,0,0,1-.275-3.964c.107-.089.211-.184.311-.284l6.695-6.7c.1-.1.2-.207.291-.316a3.03,3.03,0,0,1,3.962,4.566Zm13.978,4.155a3.021,3.021,0,0,1-4.284,0l-.95-.947-4.382-4.382,3.93-3.93c.107-.109.209-.227.3-.336l5.357,5.341c.1.1.2.193.311.284A3.028,3.028,0,0,1,112.548,172.8Z" transform="translate(-58.003 -109.245)" fill="#333"/>
</svg>
