<svg xmlns="http://www.w3.org/2000/svg" width="75.222" height="73.838" viewBox="0 0 75.222 73.838">
  <g id="social_engagement_1_" transform="translate(-896.75 86.25)">
    <g id="Group_32" data-name="Group 32" transform="translate(897 -86)">
      <path id="Path_28" data-name="Path 28" d="M53.431,46.6c0,6.486-4.655,11.762-10.378,11.762H26.441l-.119,1.254c-.578,6.171-3.382,9.618-8.925,10.764,2.741-3.011,3.336-6.809,3.477-10.583l.054-1.435H18.146C12.1,58.361,6.384,52.645,6.384,46.6V32.762c0-5.723,5.276-10.378,11.762-10.378H28.524V21H18.146C11.3,21,5,25.912,5,32.762V46.6c0,6.85,6.3,13.146,13.146,13.146h1.346c-.206,5.535-1.418,9.748-6.881,12.454,8.077,0,14.181-2.767,15.09-12.454H43.053c6.85,0,11.762-6.3,11.762-13.146V36.221H53.431Z" transform="translate(-5 1.14)" fill="#333" stroke="#333" stroke-width="0.5"/>
      <path id="Path_29" data-name="Path 29" d="M62.437,5H34.762C28.673,5,23,9.29,23,15.378V29.215c0,6.088,5.673,11.762,11.762,11.762h18.12c.909,9.686,7.013,12.454,15.09,12.454C62.51,50.726,61.3,46.512,61.09,40.977h1.346c6.088,0,10.378-5.673,10.378-11.762V15.378A9.954,9.954,0,0,0,62.437,5Zm8.994,24.215c0,4.991-3.439,10.378-8.994,10.378H59.654l.054,1.435c.141,3.775.735,7.573,3.477,10.583-5.543-1.146-8.347-4.593-8.925-10.764l-.119-1.254H34.762c-5.334,0-10.378-5.044-10.378-10.378V15.378c0-5.556,5.387-8.994,10.378-8.994H62.437a8.606,8.606,0,0,1,8.994,8.994Z" transform="translate(1.907 -5)" fill="#333" stroke="#333" stroke-width="0.5"/>
      <path id="Path_30" data-name="Path 30" d="M50.651,16.5A4.151,4.151,0,1,0,54.8,20.651,4.151,4.151,0,0,0,50.651,16.5Zm0,6.919a2.767,2.767,0,1,1,2.767-2.767A2.77,2.77,0,0,1,50.651,23.419Z" transform="translate(10.925 -0.587)" fill="#333" stroke="#333" stroke-width="0.5"/>
      <path id="Path_31" data-name="Path 31" d="M42.651,16.5A4.151,4.151,0,1,0,46.8,20.651,4.151,4.151,0,0,0,42.651,16.5Zm0,6.919a2.767,2.767,0,1,1,2.767-2.767A2.77,2.77,0,0,1,42.651,23.419Z" transform="translate(7.855 -0.587)" fill="#333" stroke="#333" stroke-width="0.5"/>
      <path id="Path_32" data-name="Path 32" d="M34.651,16.5A4.151,4.151,0,1,0,38.8,20.651,4.151,4.151,0,0,0,34.651,16.5Zm0,6.919a2.767,2.767,0,1,1,2.767-2.767A2.77,2.77,0,0,1,34.651,23.419Z" transform="translate(4.785 -0.587)" fill="#333" stroke="#333" stroke-width="0.5"/>
    </g>
  </g>
</svg>
